# xmcd CD database file
#
# Track frame offsets:
#	150
#	15489
#	26958
#	44134
#	59378
#	73266
#	90301
#	103171
#	115020
#	130982
#	143990
#	157157
#	173855
#	187623
#	199901
#	215877
#	228590
#	243122
#
# Disc length: 3413 seconds
#
# Revision: 0
# Processed by: cddbd v1.5.2PL0 Copyright (c) Steve Scherf et al.
# Submitted via: CDex 1.51
#
DISCID=0b0d5312
DTITLE=Django Reinhardt - Introduction to Django Reinhardt
DYEAR=1900
DGENRE=Jazz
TTITLE0=Nuages
TTITLE1=Belleville
TTITLE2=Swing De Paris
TTITLE3=September Song
TTITLE4=It Had To Be you
TTITLE5=Manoir De Mes reves
TTITLE6=Dinette
TTITLE7=Symphonie
TTITLE8=Ol' Man River
TTITLE9=R-Vingt-Six
TTITLE10=Swing Guitars
TTITLE11=Tears
TTITLE12=Night And Day
TTITLE13=Minor Blues
TTITLE14=Nature Boy
TTITLE15=Vous, Qui Passes Sans Me voir
TTITLE16=Swing 39
TTITLE17=All The Things You Are
EXTD=
EXTT0=
EXTT1=
EXTT2=
EXTT3=
EXTT4=
EXTT5=
EXTT6=
EXTT7=
EXTT8=
EXTT9=
EXTT10=
EXTT11=
EXTT12=
EXTT13=
EXTT14=
EXTT15=
EXTT16=
EXTT17=
PLAYORDER=
